<svg width="18" height="20" viewBox="0 0 18 20" fill="none" xmlns="http://www.w3.org/2000/svg">
<g id="Vector">
<path d="M15.3327 10.1384C15.2564 10.0672 15.166 10.0108 15.0665 9.97249C14.967 9.93414 14.8605 9.91459 14.753 9.91494C14.6455 9.9153 14.5391 9.93556 14.4399 9.97457C14.3408 10.0136 14.2507 10.0706 14.175 10.1423C14.0992 10.214 14.0393 10.2991 13.9985 10.3926C13.9577 10.4861 13.9369 10.5862 13.9373 10.6873C13.9376 10.7884 13.9592 10.8884 14.0007 10.9817C14.0422 11.0749 14.1028 11.1595 14.1791 11.2308C14.8714 11.8748 15.4209 12.6415 15.7959 13.4865C16.1709 14.3316 16.3639 15.2382 16.3636 16.1538C16.3636 17.0923 13.4918 18.4615 9.00001 18.4615C4.50821 18.4615 1.63641 17.0923 1.63641 16.1538C1.63511 15.2442 1.82448 14.3433 2.1937 13.5025C2.56292 12.6618 3.10475 11.8976 3.78822 11.2538C3.9406 11.1097 4.02614 10.9147 4.02614 10.7115C4.02614 10.5083 3.9406 10.3133 3.78822 10.1692C3.63492 10.0259 3.42755 9.94553 3.2114 9.94553C2.99525 9.94553 2.78788 10.0259 2.63458 10.1692C1.79604 10.9532 1.13137 11.8859 0.679131 12.9132C0.226888 13.9405 -0.00393308 15.042 5.07007e-05 16.1538C5.07007e-05 18.6538 4.63912 20 9.00001 20C13.3609 20 18 18.6538 18 16.1538C18.0031 15.0348 17.7688 13.9264 17.3108 12.8935C16.8529 11.8607 16.1804 10.924 15.3327 10.1384Z" fill="#ffffff"/>
<path d="M8.99997 10.7692C10.1327 10.7692 11.24 10.4534 12.1819 9.86178C13.1237 9.27011 13.8578 8.42914 14.2913 7.44523C14.7247 6.46132 14.8382 5.37865 14.6172 4.33414C14.3962 3.28962 13.8507 2.33017 13.0497 1.57712C12.2488 0.824069 11.2283 0.311233 10.1173 0.103466C9.00633 -0.1043 7.85477 0.00233308 6.80825 0.409882C5.76173 0.817432 4.86726 1.50759 4.23794 2.39309C3.60862 3.27859 3.27273 4.31965 3.27273 5.38462C3.27273 6.81272 3.87613 8.18231 4.9502 9.19213C6.02426 10.2019 7.48101 10.7692 8.99997 10.7692ZM8.99997 1.53847C9.80907 1.53847 10.6 1.76404 11.2727 2.18666C11.9455 2.60928 12.4698 3.20997 12.7795 3.91276C13.0891 4.61556 13.1701 5.38889 13.0123 6.13497C12.8544 6.88105 12.4648 7.56637 11.8927 8.10427C11.3205 8.64217 10.5916 9.00848 9.79807 9.15688C9.00451 9.30529 8.18197 9.22912 7.43446 8.93801C6.68694 8.64691 6.04803 8.15393 5.59852 7.52144C5.14901 6.88894 4.90908 6.14532 4.90908 5.38462C4.90908 4.36456 5.34009 3.38627 6.10728 2.66498C6.87447 1.94369 7.915 1.53847 8.99997 1.53847Z" fill="#ffffff"/>
</g>
</svg>
