<svg width="19" height="20" viewBox="0 0 19 20" fill="none" xmlns="http://www.w3.org/2000/svg">
<g id="Vector">
<path d="M15.9636 4.09325H14.0374C13.9414 3.06496 13.4217 2.10679 12.5814 1.40847C11.7411 0.710162 10.6414 0.322633 9.50006 0.322633C8.35873 0.322633 7.25902 0.710162 6.41871 1.40847C5.57839 2.10679 5.05874 3.06496 4.96268 4.09325H3.03656C2.32229 4.09325 1.63729 4.3498 1.13223 4.80645C0.627169 5.26311 0.343429 5.88247 0.343429 6.52828V17.2424C0.343429 17.8882 0.627169 18.5076 1.13223 18.9643C1.63729 19.4209 2.32229 19.6775 3.03656 19.6775H15.9636C16.6778 19.6775 17.3628 19.4209 17.8679 18.9643C18.3729 18.5076 18.6567 17.8882 18.6567 17.2424V6.52828C18.6567 5.88247 18.3729 5.26311 17.8679 4.80645C17.3628 4.3498 16.6778 4.09325 15.9636 4.09325ZM9.50006 1.29296C10.3561 1.29536 11.1813 1.58185 11.8192 2.09806C12.457 2.61426 12.8631 3.32425 12.9602 4.09325H6.03993C6.13706 3.32425 6.54309 2.61426 7.18093 2.09806C7.81877 1.58185 8.64403 1.29536 9.50006 1.29296ZM17.5794 17.2424C17.5794 17.6299 17.4092 18.0015 17.1062 18.2755C16.8031 18.5495 16.3921 18.7035 15.9636 18.7035H3.03656C2.608 18.7035 2.19699 18.5495 1.89396 18.2755C1.59092 18.0015 1.42068 17.6299 1.42068 17.2424V6.52828C1.42068 6.1408 1.59092 5.76918 1.89396 5.49518C2.19699 5.22119 2.608 5.06726 3.03656 5.06726H15.9636C16.3921 5.06726 16.8031 5.22119 17.1062 5.49518C17.4092 5.76918 17.5794 6.1408 17.5794 6.52828V17.2424Z" fill="#555555"/>
<path fill-rule="evenodd" clip-rule="evenodd" d="M14.341 3.77061H15.9635C16.7647 3.77061 17.5356 4.05827 18.1059 4.57398C18.6768 5.0901 19 5.7928 19 6.52823V17.2424C19 17.9778 18.6768 18.6805 18.1059 19.1966C17.5356 19.7123 16.7647 20 15.9635 20H3.0365C2.23532 20 1.46443 19.7123 0.89406 19.1966C0.323238 18.6805 0 17.9778 0 17.2424V6.52823C0 5.7928 0.323238 5.0901 0.89406 4.57398C1.46443 4.05827 2.23532 3.77061 3.0365 3.77061H4.65901C4.82702 2.7711 5.36684 1.85181 6.19114 1.16681C7.09542 0.415339 8.27646 0 9.5 0C10.7235 0 11.9046 0.415339 12.8089 1.16681C13.6332 1.85181 14.173 2.7711 14.341 3.77061ZM14.0374 4.09325H15.9636C16.6778 4.09325 17.3628 4.3498 17.8679 4.80645C18.3729 5.26311 18.6567 5.88247 18.6567 6.52828V17.2424C18.6567 17.8882 18.3729 18.5076 17.8679 18.9643C17.3628 19.4209 16.6778 19.6775 15.9636 19.6775H3.03656C2.32229 19.6775 1.63729 19.4209 1.13223 18.9643C0.627169 18.5076 0.343429 17.8882 0.343429 17.2424V6.52828C0.343429 5.88247 0.627169 5.26311 1.13223 4.80645C1.63729 4.3498 2.32229 4.09325 3.03656 4.09325H4.96268C5.05874 3.06496 5.57839 2.10679 6.41871 1.40847C7.25902 0.710162 8.35873 0.322633 9.50006 0.322633C10.6414 0.322633 11.7411 0.710162 12.5814 1.40847C13.4217 2.10679 13.9414 3.06496 14.0374 4.09325ZM11.595 2.3424C11.0206 1.87754 10.2753 1.61789 9.5 1.61549C8.72474 1.61789 7.97938 1.87754 7.40498 2.3424C6.93265 2.72466 6.60323 3.22338 6.45286 3.77061H12.5471C12.3968 3.22338 12.0673 2.72466 11.595 2.3424ZM12.9005 3.77061C12.7434 3.12711 12.3668 2.54121 11.8192 2.09806C11.1813 1.58185 10.3561 1.29536 9.50006 1.29296C8.64403 1.29536 7.81877 1.58185 7.18093 2.09806C6.63336 2.54121 6.25658 3.12711 6.09946 3.77061C6.07356 3.8767 6.05368 3.98441 6.03993 4.09325H12.9602C12.9464 3.98441 12.9264 3.8767 12.9005 3.77061ZM16.868 18.0431C17.1053 17.8285 17.236 17.5402 17.236 17.2424V6.52823C17.236 6.23037 17.1053 5.94209 16.868 5.72755C16.6303 5.51262 16.3051 5.38979 15.9635 5.38979H3.0365C2.69486 5.38979 2.36973 5.51262 2.13201 5.72755C1.89474 5.94209 1.764 6.23037 1.764 6.52823V17.2424C1.764 17.5402 1.89474 17.8285 2.13201 18.0431C2.36974 18.258 2.69486 18.3808 3.0365 18.3808H15.9635C16.3051 18.3808 16.6303 18.258 16.868 18.0431ZM17.1062 18.2755C17.4092 18.0015 17.5794 17.6299 17.5794 17.2424V6.52828C17.5794 6.1408 17.4092 5.76918 17.1062 5.49518C16.8031 5.22119 16.3921 5.06726 15.9636 5.06726H3.03656C2.608 5.06726 2.19699 5.22119 1.89396 5.49518C1.59092 5.76918 1.42068 6.1408 1.42068 6.52828V17.2424C1.42068 17.6299 1.59092 18.0015 1.89396 18.2755C2.19699 18.5495 2.608 18.7035 3.03656 18.7035H15.9636C16.3921 18.7035 16.8031 18.5495 17.1062 18.2755Z" fill="#555555"/>
</g>
</svg>
