<svg width="18" height="20" viewBox="0 0 18 20" fill="none" xmlns="http://www.w3.org/2000/svg">
<g id="Vector">
<path d="M15.1234 4.09325H13.2986C13.2076 3.06496 12.7153 2.10679 11.9192 1.40847C11.1231 0.710162 10.0813 0.322633 9.00005 0.322633C7.9188 0.322633 6.87697 0.710162 6.08088 1.40847C5.28479 2.10679 4.79249 3.06496 4.70149 4.09325H2.87674C2.20007 4.09325 1.55111 4.3498 1.07264 4.80645C0.59416 5.26311 0.325354 5.88247 0.325354 6.52828V17.2424C0.325354 17.8882 0.59416 18.5076 1.07264 18.9643C1.55111 19.4209 2.20007 19.6775 2.87674 19.6775H15.1234C15.8 19.6775 16.449 19.4209 16.9275 18.9643C17.4059 18.5076 17.6748 17.8882 17.6748 17.2424V6.52828C17.6748 5.88247 17.4059 5.26311 16.9275 4.80645C16.449 4.3498 15.8 4.09325 15.1234 4.09325ZM9.00005 1.29296C9.81103 1.29536 10.5929 1.58185 11.1971 2.09806C11.8014 2.61426 12.186 3.32425 12.2781 4.09325H5.72204C5.81406 3.32425 6.19871 2.61426 6.80298 2.09806C7.40725 1.58185 8.18908 1.29536 9.00005 1.29296ZM16.6542 17.2424C16.6542 17.6299 16.4929 18.0015 16.2058 18.2755C15.9187 18.5495 15.5294 18.7035 15.1234 18.7035H2.87674C2.47074 18.7035 2.08136 18.5495 1.79428 18.2755C1.50719 18.0015 1.34591 17.6299 1.34591 17.2424V6.52828C1.34591 6.1408 1.50719 5.76918 1.79428 5.49518C2.08136 5.22119 2.47074 5.06726 2.87674 5.06726H15.1234C15.5294 5.06726 15.9187 5.22119 16.2058 5.49518C16.4929 5.76918 16.6542 6.1408 16.6542 6.52828V17.2424Z" fill="white"/>
<path fill-rule="evenodd" clip-rule="evenodd" d="M13.5862 3.77061H15.1233C15.8823 3.77061 16.6126 4.05827 17.153 4.57398C17.6938 5.0901 18 5.7928 18 6.52823V17.2424C18 17.9778 17.6938 18.6805 17.153 19.1966C16.6126 19.7123 15.8823 20 15.1233 20H2.87668C2.11767 20 1.38736 19.7123 0.847004 19.1966C0.306226 18.6805 0 17.9778 0 17.2424V6.52823C0 5.7928 0.306226 5.0901 0.847004 4.57398C1.38736 4.05827 2.11767 3.77061 2.87668 3.77061H4.4138C4.57296 2.7711 5.08438 1.85181 5.86529 1.16681C6.72198 0.415339 7.84086 0 9 0C10.1591 0 11.278 0.415339 12.1347 1.16681C12.9156 1.85181 13.427 2.7711 13.5862 3.77061ZM13.2986 4.09325H15.1234C15.8 4.09325 16.449 4.3498 16.9275 4.80645C17.4059 5.26311 17.6748 5.88247 17.6748 6.52828V17.2424C17.6748 17.8882 17.4059 18.5076 16.9275 18.9643C16.449 19.4209 15.8 19.6775 15.1234 19.6775H2.87674C2.20007 19.6775 1.55111 19.4209 1.07264 18.9643C0.59416 18.5076 0.325354 17.8882 0.325354 17.2424V6.52828C0.325354 5.88247 0.59416 5.26311 1.07264 4.80645C1.55111 4.3498 2.20007 4.09325 2.87674 4.09325H4.70149C4.79249 3.06496 5.28479 2.10679 6.08088 1.40847C6.87697 0.710162 7.9188 0.322633 9.00005 0.322633C10.0813 0.322633 11.1231 0.710162 11.9192 1.40847C12.7153 2.10679 13.2076 3.06496 13.2986 4.09325ZM10.9848 2.3424C10.4406 1.87754 9.73446 1.61789 9 1.61549C8.26554 1.61789 7.55941 1.87754 7.01525 2.3424C6.56778 2.72466 6.25569 3.22338 6.11323 3.77061H11.8868C11.7443 3.22338 11.4322 2.72466 10.9848 2.3424ZM12.2216 3.77061C12.0727 3.12711 11.7159 2.54121 11.1971 2.09806C10.5929 1.58185 9.81103 1.29536 9.00005 1.29296C8.18908 1.29536 7.40725 1.58185 6.80298 2.09806C6.28424 2.54121 5.92729 3.12711 5.77843 3.77061C5.75389 3.8767 5.73506 3.98441 5.72204 4.09325H12.2781C12.265 3.98441 12.2461 3.8767 12.2216 3.77061ZM15.9802 18.0431C16.205 17.8285 16.3288 17.5402 16.3288 17.2424V6.52823C16.3288 6.23037 16.205 5.94209 15.9802 5.72755C15.755 5.51262 15.447 5.38979 15.1233 5.38979H2.87668C2.55303 5.38979 2.24501 5.51262 2.0198 5.72755C1.79502 5.94209 1.67116 6.23037 1.67116 6.52823V17.2424C1.67116 17.5402 1.79502 17.8285 2.0198 18.0431C2.24501 18.258 2.55303 18.3808 2.87668 18.3808H15.1233C15.447 18.3808 15.755 18.258 15.9802 18.0431ZM16.2058 18.2755C16.4929 18.0015 16.6542 17.6299 16.6542 17.2424V6.52828C16.6542 6.1408 16.4929 5.76918 16.2058 5.49518C15.9187 5.22119 15.5294 5.06726 15.1234 5.06726H2.87674C2.47074 5.06726 2.08136 5.22119 1.79428 5.49518C1.50719 5.76918 1.34591 6.1408 1.34591 6.52828V17.2424C1.34591 17.6299 1.50719 18.0015 1.79428 18.2755C2.08136 18.5495 2.47074 18.7035 2.87674 18.7035H15.1234C15.5294 18.7035 15.9187 18.5495 16.2058 18.2755Z" fill="white"/>
</g>
</svg>
