<svg width="108" height="10" viewBox="0 0 108 10" fill="none" xmlns="http://www.w3.org/2000/svg">
<g id="Vector1">
<path d="M0 0.217008H4.59446C6.45316 0.217008 7.71078 0.811917 7.71078 2.61161C7.71078 3.58567 7.25965 4.20801 6.38511 4.62832C7.58854 4.96631 8.17577 5.87551 8.17577 7.07655C8.17577 9.03963 6.49474 9.87774 4.73055 9.87774H0V0.217008ZM2.14223 4.12695H4.31975C5.08591 4.12695 5.63281 3.78896 5.63281 2.97704C5.63281 2.07033 4.92209 1.87078 4.15845 1.87078H2.14223V4.12695ZM2.14223 8.23145H4.44324C5.27745 8.23145 6.02975 7.96081 6.02975 6.95932C6.02975 5.95782 5.41859 5.57493 4.48483 5.57493H2.14223V8.23145Z" fill="#555555"/>
<path d="M18.6198 9.99996C17.6204 9.99848 16.644 9.70369 15.814 9.15289C14.984 8.60209 14.3376 7.82002 13.9568 6.90561C13.5759 5.9912 13.4776 4.98553 13.6743 4.01582C13.871 3.04611 14.3539 2.15592 15.0618 1.45785C15.7698 0.759791 16.671 0.285219 17.6515 0.0941687C18.632 -0.0968816 19.6478 0.00417329 20.5702 0.38455C21.4927 0.764927 22.2805 1.40754 22.8339 2.23109C23.3873 3.05465 23.6815 4.02215 23.6792 5.01121C23.6792 5.66792 23.5482 6.31817 23.2937 6.92465C23.0392 7.53114 22.6663 8.08193 22.1962 8.54542C21.7261 9.00892 21.1682 9.376 20.5545 9.6256C19.9408 9.87521 19.2833 10.0024 18.6198 9.99996ZM15.6396 5.01121C15.6314 5.40193 15.7021 5.79032 15.8476 6.15365C15.993 6.51697 16.2103 6.84791 16.4866 7.12708C16.7629 7.40626 17.0928 7.62804 17.4568 7.77946C17.8208 7.93087 18.2117 8.00886 18.6065 8.00886C19.0014 8.00886 19.3923 7.93087 19.7563 7.77946C20.1203 7.62804 20.4502 7.40626 20.7265 7.12708C21.0028 6.84791 21.22 6.51697 21.3655 6.15365C21.5109 5.79032 21.5817 5.40193 21.5735 5.01121C21.5735 3.40108 20.2466 2.04788 18.6198 2.04788C17.8308 2.05731 17.077 2.37229 16.5199 2.9253C15.9628 3.47831 15.6467 4.22533 15.6396 5.00622V5.01121Z" fill="#555555"/>
<path d="M29.898 9.81039V0.175851H32.0075V8.02442H37.0115V9.81039H29.898Z" fill="#555555"/>
<path d="M44.6353 2.00298H41.5316V0.230727H49.8586V2.0167H46.7813V9.874H44.6391L44.6353 2.00298Z" fill="#555555"/>
<path d="M54.6017 9.87774L59.0311 0.230727H61.191L65.5523 9.87774H63.4743L62.5179 7.74006H57.5882L56.5562 9.87774H54.6017ZM60.1388 2.04289L58.5006 5.78446H61.7404L60.1526 2.04289H60.1388Z" fill="#555555"/>
<path d="M73.3173 6.02143V8.07805H78.8266V9.86402H71.2393V0.175851H78.3616V1.96183H73.321V4.14067H77.7781V6.02143H73.3173Z" fill="#555555"/>
<path d="M90.0771 9.87774H87.6576L84.4859 0.217008H86.6974L88.8749 7.0092H88.9014L91.1079 0.217008H93.3232L90.0771 9.87774Z" fill="#555555"/>
<path d="M97.0494 9.87774L101.479 0.22948H103.639L108 9.87774H105.922L104.969 7.74006H100.03L99.0039 9.87774H97.0494ZM102.586 2.04289L100.948 5.78446H104.188L102.6 2.04289H102.586Z" fill="#555555"/>
</g>
</svg>
