<svg width="150" height="14" viewBox="0 0 150 14" fill="none" xmlns="http://www.w3.org/2000/svg">
<g id="Vector1">
<path d="M0 0.303811H6.38119C8.96272 0.303811 10.7094 1.13668 10.7094 3.65626C10.7094 5.01993 10.0828 5.89122 8.86821 6.47964C10.5396 6.95283 11.3552 8.22571 11.3552 9.90717C11.3552 12.6555 9.02048 13.8288 6.57021 13.8288H0V0.303811ZM2.97532 5.77773H5.99965C7.06377 5.77773 7.82335 5.30454 7.82335 4.16785C7.82335 2.89846 6.83624 2.61909 5.77563 2.61909H2.97532V5.77773ZM2.97532 11.524H6.17117C7.32979 11.524 8.37466 11.1451 8.37466 9.74304C8.37466 8.34095 7.52582 7.80491 6.22893 7.80491H2.97532V11.524Z" fill="white"/>
<path d="M25.8608 14C24.4728 13.9979 23.1167 13.5852 21.9639 12.814C20.8111 12.0429 19.9134 10.948 19.3844 9.66785C18.8554 8.38768 18.7189 6.97974 18.9921 5.62214C19.2653 4.26455 19.9359 3.01828 20.9192 2.04099C21.9025 1.06371 23.1542 0.399307 24.516 0.131836C25.8778 -0.135634 27.2885 0.00584261 28.5698 0.53837C29.851 1.0709 30.9451 1.97055 31.7137 3.12353C32.4823 4.2765 32.8909 5.631 32.8878 7.01569C32.8878 7.93508 32.7059 8.84543 32.3524 9.69451C31.999 10.5436 31.4809 11.3147 30.8281 11.9636C30.1752 12.6125 29.4003 13.1264 28.5479 13.4758C27.6955 13.8253 26.7824 14.0034 25.8608 14ZM21.7216 7.01569C21.7103 7.5627 21.8085 8.10645 22.0106 8.6151C22.2126 9.12376 22.5143 9.58708 22.8981 9.97792C23.2818 10.3688 23.7399 10.6793 24.2455 10.8912C24.7511 11.1032 25.294 11.2124 25.8424 11.2124C26.3908 11.2124 26.9337 11.1032 27.4393 10.8912C27.9449 10.6793 28.403 10.3688 28.7868 9.97792C29.1705 9.58708 29.4723 9.12376 29.6743 8.6151C29.8763 8.10645 29.9745 7.5627 29.9632 7.01569C29.9632 4.76152 28.1203 2.86704 25.8608 2.86704C24.765 2.88023 23.718 3.32121 22.9443 4.09542C22.1705 4.86963 21.7316 5.91546 21.7216 7.0087V7.01569Z" fill="white"/>
<path d="M41.525 13.7345V0.246192H44.4548V11.2342H51.4048V13.7345H41.525Z" fill="white"/>
<path d="M61.9935 2.80418H57.6827V0.323018H69.248V2.82338H64.974V13.8236H61.9987L61.9935 2.80418Z" fill="white"/>
<path d="M75.8357 13.8288L81.9876 0.323018H84.9875L91.0449 13.8288H88.1588L86.8304 10.8361H79.9837L78.5503 13.8288H75.8357ZM83.526 2.86005L81.2508 8.09825H85.7505L83.5453 2.86005H83.526Z" fill="white"/>
<path d="M101.83 8.43V11.3093H109.481V13.8096H98.9435V0.246192H108.836V2.74656H101.835V5.79693H108.025V8.43H101.83Z" fill="white"/>
<path d="M125.107 13.8288H121.747L117.341 0.303811H120.413L123.437 9.81288H123.474L126.539 0.303811H129.616L125.107 13.8288Z" fill="white"/>
<path d="M134.791 13.8288L140.943 0.321271H143.943L150 13.8288H147.114L145.791 10.8361H138.93L137.505 13.8288H134.791ZM142.481 2.86005L140.206 8.09825H144.706L142.5 2.86005H142.481Z" fill="white"/>
</g>
</svg>
