<svg width="18" height="18" viewBox="0 0 18 18" fill="none" xmlns="http://www.w3.org/2000/svg">
<g id="Vector">
<path d="M8.99998 4.42236C6.51611 4.42236 4.45805 6.44494 4.45805 8.96429C4.45805 11.4836 6.48063 13.5062 8.99998 13.5062C11.5193 13.5062 13.5419 11.4482 13.5419 8.96429C13.5419 6.48042 11.4839 4.42236 8.99998 4.42236ZM8.99998 11.874C7.40321 11.874 6.0903 10.5611 6.0903 8.96429C6.0903 7.36752 7.40321 6.05461 8.99998 6.05461C10.5968 6.05461 11.9097 7.36752 11.9097 8.96429C11.9097 10.5611 10.5968 11.874 8.99998 11.874Z" fill="#AC8F78"/>
<path d="M13.7193 5.34491C14.2876 5.34491 14.7484 4.8842 14.7484 4.31588C14.7484 3.74756 14.2876 3.28685 13.7193 3.28685C13.151 3.28685 12.6903 3.74756 12.6903 4.31588C12.6903 4.8842 13.151 5.34491 13.7193 5.34491Z" fill="#AC8F78"/>
<path d="M16.3806 1.65461C15.458 0.696542 14.1451 0.199768 12.6548 0.199768H5.34514C2.25805 0.199768 0.199982 2.25783 0.199982 5.34493V12.6191C0.199982 14.1449 0.696756 15.4578 1.6903 16.4159C2.64837 17.3385 3.92579 17.7998 5.38063 17.7998H12.6193C14.1451 17.7998 15.4226 17.303 16.3451 16.4159C17.3032 15.4933 17.8 14.1804 17.8 12.6546V5.34493C17.8 3.85461 17.3032 2.57719 16.3806 1.65461ZM16.2387 12.6546C16.2387 13.7546 15.8484 14.6417 15.2097 15.2449C14.5709 15.8482 13.6839 16.1675 12.6193 16.1675H5.38063C4.31611 16.1675 3.42901 15.8482 2.7903 15.2449C2.15159 14.6062 1.83224 13.7191 1.83224 12.6191V5.34493C1.83224 4.28041 2.15159 3.39332 2.7903 2.75461C3.39353 2.15138 4.31611 1.83203 5.38063 1.83203H12.6903C13.7548 1.83203 14.6419 2.15138 15.2806 2.79009C15.8839 3.4288 16.2387 4.3159 16.2387 5.34493V12.6546Z" fill="#AC8F78"/>
</g>
</svg>
