<svg width="17" height="14" viewBox="0 0 17 14" fill="none" xmlns="http://www.w3.org/2000/svg">
<path id="Vector" d="M16.3286 1.96244C15.7394 2.22787 15.1052 2.40691 14.4399 2.48703C15.1192 2.07488 15.6401 1.42203 15.8858 0.643235C15.2504 1.02538 14.5469 1.30267 13.7976 1.45237C13.1979 0.804798 12.3432 0.399902 11.3974 0.399902C9.58148 0.399902 8.10919 1.89188 8.10919 3.73238C8.10919 3.99319 8.13815 4.2474 8.19444 4.49172C5.46135 4.35258 3.03802 3.02612 1.41606 1.00988C1.13299 1.50183 0.970956 2.07422 0.970956 2.68552C0.970956 3.84152 1.55141 4.86167 2.43381 5.45912C1.895 5.44165 1.38775 5.29162 0.944276 5.04203C0.943951 5.05587 0.943951 5.07005 0.943951 5.08423C0.943951 6.69854 2.07753 8.04511 3.58203 8.35175C3.30612 8.42759 3.01556 8.46847 2.71558 8.46847C2.50344 8.46847 2.29748 8.4477 2.09673 8.40847C2.51548 9.73229 3.72975 10.6961 5.16852 10.7228C4.04308 11.6166 2.62545 12.1495 1.08451 12.1495C0.819335 12.1495 0.557414 12.1336 0.300049 12.1026C1.75574 13.0486 3.48409 13.5999 5.34097 13.5999C11.3899 13.5999 14.6972 8.52222 14.6972 4.11848C14.6972 3.97406 14.6943 3.82998 14.6881 3.68688C15.3304 3.21802 15.8881 2.63079 16.3286 1.96244Z" fill="#AC8F78"/>
</svg>
