<svg width="20" height="12" viewBox="0 0 20 12" fill="none" xmlns="http://www.w3.org/2000/svg">
<path id="Vector" d="M19.4488 1.24594C19.5848 0.81625 19.4488 0.5 18.7945 0.5H16.6295C16.0782 0.5 15.8246 0.771562 15.6886 1.07406C15.6886 1.07406 14.5859 3.58687 13.0274 5.21625C12.5238 5.68719 12.2922 5.83844 12.0166 5.83844C11.8806 5.83844 11.6711 5.68719 11.6711 5.2575V1.24594C11.6711 0.730312 11.5167 0.5 11.0609 0.5H7.65722C7.31171 0.5 7.10587 0.740625 7.10587 0.964063C7.10587 1.45219 7.88511 1.56563 7.96598 2.94062V5.92438C7.96598 6.5775 7.841 6.69781 7.56533 6.69781C6.83019 6.69781 5.04382 4.17469 3.98522 1.28719C3.77203 0.726875 3.56252 0.5 3.00749 0.5H0.842523C0.22501 0.5 0.100037 0.771562 0.100037 1.07406C0.100037 1.61031 0.835171 4.27438 3.52209 7.79438C5.31214 10.1972 7.83365 11.5 10.1273 11.5C11.5057 11.5 11.6747 11.2113 11.6747 10.7128C11.6747 8.41656 11.5498 8.2 12.2408 8.2C12.5606 8.2 13.1119 8.35125 14.3984 9.50969C15.8687 10.8847 16.1113 11.5 16.9346 11.5H19.0996C19.7171 11.5 20.0295 11.2113 19.8494 10.6406C19.4378 9.44094 16.6553 6.97281 16.5303 6.80781C16.2105 6.42281 16.3024 6.25094 16.5303 5.90719C16.534 5.90375 19.1768 2.425 19.4488 1.24594Z" fill="#AC8F78"/>
</svg>
