<svg width="18" height="13" viewBox="0 0 18 13" fill="none" xmlns="http://www.w3.org/2000/svg">
<path id="Vector" d="M16.7861 2.38944C16.5913 1.64568 16.0173 1.06003 15.2884 0.861244C13.9672 0.5 8.66997 0.5 8.66997 0.5C8.66997 0.5 3.37267 0.5 2.05148 0.861244C1.32272 1.06003 0.748649 1.64568 0.553872 2.38944C0.199951 3.73746 0.199951 6.5501 0.199951 6.5501C0.199951 6.5501 0.199951 9.36268 0.553872 10.7106C0.748649 11.4543 1.32272 12.0401 2.05148 12.2389C3.37267 12.6 8.66997 12.6 8.66997 12.6C8.66997 12.6 13.9672 12.6 15.2884 12.2389C16.0173 12.0401 16.5913 11.4543 16.7861 10.7106C17.1399 9.36268 17.1399 6.5501 17.1399 6.5501C17.1399 6.5501 17.1399 3.73746 16.7861 2.38944ZM6.97586 9.14299V3.95718L11.3769 6.5501L6.97586 9.14299Z" fill="#AC8F78"/>
</svg>
